<?xml version="1.0" encoding="UTF-8" standalone="no"?>
<!-- Generator: Adobe Illustrator 23.0.0, SVG Export Plug-In . SVG Version: 6.00 Build 0)  -->

<svg
   xmlns:dc="http://purl.org/dc/elements/1.1/"
   xmlns:cc="http://creativecommons.org/ns#"
   xmlns:rdf="http://www.w3.org/1999/02/22-rdf-syntax-ns#"
   xmlns:svg="http://www.w3.org/2000/svg"
   xmlns="http://www.w3.org/2000/svg"
   xmlns:sodipodi="http://sodipodi.sourceforge.net/DTD/sodipodi-0.dtd"
   xmlns:inkscape="http://www.inkscape.org/namespaces/inkscape"
   version="1.1"
   id="Layer_1"
   x="0px"
   y="0px"
   viewBox="0 0 229.46811 233.64944"
   xml:space="preserve"
   sodipodi:docname="Icone-torneira.svg"
   width="229.46811"
   height="233.64944"
   inkscape:version="0.92.3 (2405546, 2018-03-11)"><metadata
   id="metadata13"><rdf:RDF><cc:Work
       rdf:about=""><dc:format>image/svg+xml</dc:format><dc:type
         rdf:resource="http://purl.org/dc/dcmitype/StillImage" /></cc:Work></rdf:RDF></metadata><defs
   id="defs11" /><sodipodi:namedview
   pagecolor="#ffffff"
   bordercolor="#666666"
   borderopacity="1"
   objecttolerance="10"
   gridtolerance="10"
   guidetolerance="10"
   inkscape:pageopacity="0"
   inkscape:pageshadow="2"
   inkscape:window-width="651"
   inkscape:window-height="480"
   id="namedview9"
   showgrid="false"
   inkscape:zoom="0.62439024"
   inkscape:cx="69.754203"
   inkscape:cy="116.83001"
   inkscape:window-x="0"
   inkscape:window-y="0"
   inkscape:window-maximized="0"
   inkscape:current-layer="Layer_1" />
<g
   id="g6"
   transform="translate(-312.21845,-53.180557)"
   fill="#FF8760">
	<path
   d="m 541.68,142.5 c -0.01,-6.28 -3.94,-10.22 -10.18,-10.23 -11.15,-0.01 -22.3,0 -33.45,0 -3.27,0 -4.7,-1.43 -4.7,-4.69 0,-6.96 0.02,-13.93 -0.01,-20.89 -0.03,-5.5 -4.09,-9.51 -9.59,-9.54 -3.33,-0.02 -6.66,0 -9.99,-0.01 -1.91,-0.01 -2.31,-0.4 -2.31,-2.31 -0.01,-3.83 -0.01,-7.67 0,-11.5 0,-2.28 0.35,-2.62 2.65,-2.63 3.83,-0.01 7.67,0.02 11.5,-0.01 4.74,-0.04 7.73,-3.05 7.75,-7.78 0.01,-2.37 0,-4.74 0,-7.11 -0.01,-5.32 -2.89,-8.21 -8.25,-8.21 -4.99,-0.01 -9.99,-0.04 -14.98,0.02 -1.49,0.02 -2.67,-0.38 -3.85,-1.34 -5.14,-4.19 -12.34,-4.1 -17.4,0.16 -1,0.84 -2.02,1.19 -3.3,1.18 -5.15,-0.04 -10.29,-0.03 -15.44,-0.01 -5.19,0.01 -8.14,2.97 -8.17,8.18 -0.02,2.27 -0.02,4.54 0,6.81 0.04,5.2 2.98,8.1 8.22,8.12 3.83,0.01 7.67,-0.01 11.5,0.01 1.6,0.01 2.25,0.56 2.26,1.98 0.03,4.19 0.02,8.38 0.01,12.56 0,1.32 -0.72,1.91 -2.01,1.9 -1.06,-0.01 -2.12,0 -3.18,0 -2.22,0 -4.44,0 -6.66,0 -6.17,0.01 -10.11,3.89 -10.15,10.1 -0.04,6.81 0,13.62 -0.01,20.43 0,3.22 -1.38,4.59 -4.61,4.59 -7.82,0 -15.64,0 -23.46,0 -6.08,0.01 -12.06,0.79 -17.95,2.27 -30.94,7.77 -53.9,34.72 -56.43,66.72 -0.07,0.94 -0.37,1.26 -1.37,1.29 -3.6,0.08 -5.88,2.47 -5.89,6.08 -0.02,3.53 -0.01,7.06 0,10.6 0.01,4.08 2.29,6.34 6.39,6.34 9.79,0 19.58,0 29.36,0 9.84,0 19.68,0.01 29.51,0 3.49,0 5.95,-2.18 6.06,-5.6 0.13,-3.93 0.11,-7.87 0,-11.8 -0.08,-2.99 -2.09,-5.23 -5,-5.56 -1.38,-0.15 -1.27,-0.61 -0.88,-1.58 2.55,-6.33 8.82,-10.59 15.73,-10.6 9.43,-0.01 18.87,0.04 28.3,0.01 1.58,0 2.77,0.52 3.87,1.65 17.7,18.29 46.36,18.3 64.12,0.03 1.14,-1.18 2.37,-1.69 4.01,-1.69 12.56,0.04 25.13,0.03 37.69,0.02 6.39,0 10.27,-3.87 10.28,-10.27 0.02,-12.56 0.02,-25.13 0.01,-37.69 z m -5.56,37.67 c 0,3.38 -1.42,4.79 -4.77,4.79 -12.56,0 -25.13,0.04 -37.69,-0.02 -3.18,-0.01 -5.73,1.05 -7.93,3.35 -15.21,15.88 -40.63,15.98 -55.92,0.19 -2.38,-2.46 -5.05,-3.58 -8.46,-3.55 -9.28,0.08 -18.57,0 -27.85,-0.01 -9.46,-0.01 -17.86,5.79 -21.14,14.62 -1.59,4.28 0.34,7.7 4.83,8.45 0.65,0.11 0.86,0.35 0.86,0.95 -0.01,3.43 -0.02,6.86 0,10.29 0.01,0.96 -0.61,0.86 -1.23,0.86 -4.14,0 -8.28,0 -12.41,0 -5.5,0 -11,0 -16.5,0 -9.54,0 -19.07,-0.02 -28.61,0.03 -1.24,0.01 -1.65,-0.29 -1.61,-1.58 0.09,-3.08 0.06,-6.16 0.01,-9.23 -0.02,-0.99 0.29,-1.28 1.28,-1.31 3.54,-0.1 5.69,-2.28 5.97,-5.92 0.91,-11.85 4.54,-22.81 11.14,-32.69 11.7,-17.52 28.06,-27.85 48.91,-30.98 4.35,-0.65 8.74,-0.68 13.14,-0.66 6.46,0.04 12.92,0.01 19.38,0.01 6.05,-0.01 9.95,-3.82 10,-9.89 0.05,-5.45 0.01,-10.9 0.01,-16.35 0,-1.41 -0.01,-2.83 0,-4.24 0.02,-3.18 1.46,-4.64 4.6,-4.64 3.28,-0.01 6.56,0.01 9.84,0 4.55,-0.02 7.45,-2.92 7.46,-7.49 0.02,-4.09 0.01,-8.17 0,-12.26 -0.02,-4.68 -2.93,-7.66 -7.63,-7.73 -3.83,-0.06 -7.67,-0.01 -11.5,-0.01 -2.43,0 -2.77,-0.35 -2.77,-2.83 0,-2.27 -0.01,-4.54 0,-6.81 0.02,-1.83 0.51,-2.34 2.35,-2.35 5.15,-0.02 10.29,-0.06 15.44,0.01 2.7,0.04 5,-0.7 7.08,-2.47 3.21,-2.73 7.43,-2.68 10.65,0.09 1.95,1.67 4.12,2.4 6.65,2.38 5.15,-0.04 10.29,-0.02 15.44,-0.01 2.2,0 2.69,0.5 2.7,2.65 0.01,2.27 0.01,4.54 0,6.81 -0.01,2 -0.51,2.53 -2.49,2.54 -3.78,0.01 -7.57,-0.01 -11.35,0.01 -5.25,0.02 -8.12,2.9 -8.13,8.17 -0.01,3.89 -0.02,7.77 0,11.66 0.02,4.78 2.88,7.65 7.62,7.66 3.28,0.01 6.56,-0.01 9.84,0 2.93,0.01 4.51,1.56 4.51,4.46 0.01,6.96 0,13.93 0.01,20.89 0.01,5.83 3.94,9.76 9.79,9.76 11.2,0.01 22.4,0 33.61,0 3.44,0 4.87,1.42 4.87,4.86 0.01,12.51 0.01,25.03 0,37.54 z"
   id="path2"
   inkscape:connector-curvature="0" />
	<path
   d="m 365.47,266.82 c -2.7,-9.64 -5.67,-19.2 -8.57,-28.77 -0.96,-3.16 -3.68,-5.02 -6.97,-4.97 -3.13,0.04 -5.79,2.06 -6.71,5.14 -2.81,9.4 -5.62,18.79 -8.39,28.2 -3.02,10.23 4.63,20.42 15.29,20.41 10.46,-0.02 18.17,-9.92 15.35,-20.01 z m -10.91,13.46 c -3.95,1.86 -7.81,1.38 -11.16,-1.44 -3.3,-2.79 -4.47,-6.49 -3.29,-10.63 2.67,-9.38 5.54,-18.71 8.32,-28.06 0.27,-0.89 0.68,-1.6 1.73,-1.57 0.97,0.03 1.37,0.7 1.62,1.53 2.8,9.45 5.62,18.89 8.4,28.35 0.22,0.76 0.25,1.58 0.34,2.19 -0.17,4.5 -2.05,7.78 -5.96,9.63 z"
   id="path4"
   inkscape:connector-curvature="0" />
</g>
</svg>