<?xml version="1.0" encoding="utf-8"?>
<!-- Generator: Adobe Illustrator 23.0.0, SVG Export Plug-In . SVG Version: 6.00 Build 0)  -->
<svg version="1.1" id="Layer_1" xmlns="http://www.w3.org/2000/svg" xmlns:xlink="http://www.w3.org/1999/xlink" x="0px" y="0px"
	 viewBox="0 0 333.64 340" style="enable-background:new 0 0 333.64 340;" xml:space="preserve">
<g>
	<path d="M160.85,83.97c0-5.01-0.01-10.01,0-15.02c0.01-2.03,1.17-3.18,3.1-3.16c1.8,0.02,3.01,1.19,3.01,2.99
		c0.01,10.18,0.01,20.37,0,30.55c0,1.82-1.2,3.01-2.97,3.05c-1.86,0.04-3.13-1.13-3.14-3.01C160.83,94.24,160.85,89.11,160.85,83.97
		z"/>
	<path d="M163.86,261.56c-5,0-10.01,0-15.01,0c-2.03,0-3.22-1.13-3.22-3.03c0-1.92,1.14-3.06,3.2-3.06c10.05-0.02,20.1-0.01,30.15,0
		c2,0,3.25,1.21,3.26,3.05c0,1.9-1.26,3.05-3.37,3.05C173.87,261.57,168.87,261.56,163.86,261.56z"/>
	<path d="M261.08,120.57c0,1.27-0.44,2.06-1.3,2.62c-8.63,5.56-17.25,11.13-25.89,16.67c-1.48,0.95-3.21,0.49-4.14-1.01
		c-0.95-1.52-0.63-3.17,0.9-4.16c8.55-5.52,17.11-11.03,25.66-16.55c1-0.65,2.02-0.75,3.05-0.2
		C260.47,118.56,261,119.56,261.08,120.57z"/>
	<path d="M203.42,113.03c-2.44-0.03-3.92-2.43-2.74-4.54c4.99-8.92,10-17.83,15.03-26.73c0.86-1.52,2.62-1.93,4.14-1.05
		c1.48,0.86,2.03,2.52,1.2,4c-5.02,8.96-10.06,17.9-15.09,26.85C205.4,112.56,204.56,113.04,203.42,113.03z"/>
	<path d="M68.94,117.61c0.52-0.03,1.04,0.25,1.56,0.58c8.52,5.49,17.04,10.98,25.56,16.48c1.59,1.03,1.92,2.7,0.91,4.25
		c-0.96,1.47-2.66,1.88-4.17,0.91c-8.6-5.53-17.19-11.06-25.78-16.61c-1.27-0.82-1.64-1.97-1.18-3.36
		C66.28,118.48,67.46,117.59,68.94,117.61z"/>
	<path d="M108.74,80.29c1.16-0.03,1.9,0.72,2.49,1.77c3.98,7.11,7.98,14.22,11.97,21.33c0.95,1.69,1.92,3.38,2.84,5.08
		c0.89,1.63,0.38,3.31-1.21,4.17c-1.58,0.85-3.19,0.42-4.09-1.18c-5-8.87-10-17.74-14.96-26.62
		C104.56,82.66,106.09,80.26,108.74,80.29z"/>
	<path d="M163.96,273.79c-5.1,0-10.2-0.01-15.29,0.01c-1.25,0.01-2.19-0.45-2.71-1.6c-0.52-1.14-0.47-2.27,0.25-3.32
		c0.55-0.81,1.33-1.16,2.32-1.16c10.28,0.01,20.56,0,30.85,0.01c1.68,0,2.87,1.3,2.87,3.01c0.01,1.71-1.17,3.02-2.86,3.03
		C174.24,273.81,169.1,273.79,163.96,273.79C163.96,273.79,163.96,273.79,163.96,273.79z"/>
	<path d="M163.85,279.94c3.41,0,6.81-0.01,10.22,0c1.58,0,2.01,0.43,2.05,1.96c0.11,4.14,0.11,4.14-4.02,4.14
		c-6.04,0-12.08,0-18.11,0c-1.97,0-2.32-0.36-2.32-2.36c-0.01-3.75-0.01-3.75,3.77-3.75C158.24,279.94,161.05,279.94,163.85,279.94z
		"/>
	<path d="M220.8,166.17c-4.01-26.57-27.3-47.14-54.2-48.19c-16.28-0.63-30.59,4.51-42.33,15.83c-14.61,14.09-20.35,31.42-17.2,51.48
		c2.16,13.74,8.88,25.06,19.32,34.23c6.87,6.04,10.36,13.63,10.29,22.83c-0.05,5.87,3.57,9.43,9.44,9.44c5.92,0.01,11.84,0,17.76,0
		c0-0.02,0-0.04,0-0.06c5.96,0,11.93-0.14,17.88,0.04c5.34,0.17,9.44-3.78,9.31-9.29c-0.21-9.35,3.52-16.91,10.46-23.13
		C217.44,205.11,223.99,187.27,220.8,166.17z M198.65,214.69c-4.44,4.13-8.27,8.54-10.54,14.2c-1.73,4.3-2.52,8.77-2.48,13.4
		c0.03,3.06-0.97,4.07-3.98,4.08c-5.92,0.01-11.84,0-17.75,0c0,0.03,0,0.06,0,0.09c-5.88,0-11.75,0-17.63,0
		c-2.98,0-4.2-1.19-4.19-4.12c0.03-10.89-4.15-19.85-12.3-27.02c-10.41-9.15-16.4-20.63-17.96-34.39
		c-2.96-26.08,15.4-51.26,41.17-56.49c28.05-5.7,55.14,11.12,61.69,38.92C219.4,183.39,213.72,200.68,198.65,214.69z"/>
</g>
</svg>
