<?xml version="1.0" encoding="utf-8"?>
<!-- Generator: Adobe Illustrator 23.0.0, SVG Export Plug-In . SVG Version: 6.00 Build 0)  -->
<svg version="1.1" id="Layer_1" xmlns="http://www.w3.org/2000/svg" xmlns:xlink="http://www.w3.org/1999/xlink" x="0px" y="0px"
	 viewBox="0 0 333.64 340" style="enable-background:new 0 0 333.64 340;" xml:space="preserve">
<g>
	<path d="M163.86,261.56c-5,0-10.01,0-15.01,0c-2.03,0-3.22-1.13-3.22-3.03c0-1.92,1.14-3.06,3.2-3.06c10.05-0.02,20.1-0.01,30.15,0
		c2,0,3.25,1.21,3.26,3.05c0,1.9-1.26,3.05-3.37,3.05C173.87,261.57,168.87,261.56,163.86,261.56z"/>
	<path d="M163.96,273.79c-5.1,0-10.2-0.01-15.29,0.01c-1.25,0.01-2.19-0.45-2.71-1.6c-0.52-1.14-0.47-2.27,0.25-3.32
		c0.55-0.81,1.33-1.16,2.32-1.16c10.28,0.01,20.56,0,30.85,0.01c1.68,0,2.87,1.3,2.87,3.01c0.01,1.71-1.17,3.02-2.86,3.03
		C174.24,273.81,169.1,273.79,163.96,273.79L163.96,273.79z"/>
	<path d="M163.85,279.94c3.41,0,6.81-0.01,10.22,0c1.58,0,2.01,0.43,2.05,1.96c0.11,4.14,0.11,4.14-4.02,4.14
		c-6.04,0-12.08,0-18.11,0c-1.97,0-2.32-0.36-2.32-2.36c-0.01-3.75-0.01-3.75,3.77-3.75C158.24,279.94,161.05,279.94,163.85,279.94z
		"/>
	<path d="M220.8,166.17c-4.01-26.57-27.3-47.14-54.2-48.19c-16.28-0.63-30.59,4.51-42.33,15.83c-14.61,14.09-20.35,31.42-17.2,51.48
		c2.16,13.74,8.88,25.06,19.32,34.23c6.87,6.04,10.36,13.63,10.29,22.83c-0.05,5.87,3.57,9.43,9.44,9.44c5.92,0.01,11.84,0,17.76,0
		c0-0.02,0-0.04,0-0.06c5.96,0,11.93-0.14,17.88,0.04c5.34,0.17,9.44-3.78,9.31-9.29c-0.21-9.35,3.52-16.91,10.46-23.13
		C217.44,205.11,223.99,187.27,220.8,166.17z M198.65,214.69c-4.44,4.13-8.27,8.54-10.54,14.2c-1.73,4.3-2.52,8.77-2.48,13.4
		c0.03,3.06-0.97,4.07-3.98,4.08c-5.92,0.01-11.84,0-17.75,0c0,0.03,0,0.06,0,0.09c-5.88,0-11.75,0-17.63,0
		c-2.98,0-4.2-1.19-4.19-4.12c0.03-10.89-4.15-19.85-12.3-27.02c-10.41-9.15-16.4-20.63-17.96-34.39
		c-2.96-26.08,15.4-51.26,41.17-56.49c28.05-5.7,55.14,11.12,61.69,38.92C219.4,183.39,213.72,200.68,198.65,214.69z"/>
</g>
</svg>
