<?xml version="1.0" encoding="UTF-8" standalone="no"?>
<!-- Generator: Adobe Illustrator 23.0.0, SVG Export Plug-In . SVG Version: 6.00 Build 0)  -->

<svg
   xmlns:dc="http://purl.org/dc/elements/1.1/"
   xmlns:cc="http://creativecommons.org/ns#"
   xmlns:rdf="http://www.w3.org/1999/02/22-rdf-syntax-ns#"
   xmlns:svg="http://www.w3.org/2000/svg"
   xmlns="http://www.w3.org/2000/svg"
   xmlns:sodipodi="http://sodipodi.sourceforge.net/DTD/sodipodi-0.dtd"
   xmlns:inkscape="http://www.inkscape.org/namespaces/inkscape"
   version="1.1"
   id="Layer_1"
   x="0px"
   y="0px"
   viewBox="0 0 115.35247 168.11153"
   xml:space="preserve"
   sodipodi:docname="Icone-Lampada-2.svg"
   width="115.35248"
   height="168.11153"
   inkscape:version="0.92.3 (2405546, 2018-03-11)"><metadata
   id="metadata17"><rdf:RDF><cc:Work
       rdf:about=""><dc:format>image/svg+xml</dc:format><dc:type
         rdf:resource="http://purl.org/dc/dcmitype/StillImage" /></cc:Work></rdf:RDF></metadata><defs
   id="defs15" /><sodipodi:namedview
   pagecolor="#ffffff"
   bordercolor="#666666"
   borderopacity="1"
   objecttolerance="10"
   gridtolerance="10"
   guidetolerance="10"
   inkscape:pageopacity="0"
   inkscape:pageshadow="2"
   inkscape:window-width="651"
   inkscape:window-height="480"
   id="namedview13"
   showgrid="false"
   inkscape:zoom="0.69411765"
   inkscape:cx="35.37536"
   inkscape:cy="116.04"
   inkscape:window-x="0"
   inkscape:window-y="0"
   inkscape:window-maximized="0"
   inkscape:current-layer="Layer_1" />
<g
   id="g10"
   transform="translate(-106.23278,-117.92848)"
   fill="#2f0f40">
	<path
   d="m 163.86,261.56 c -5,0 -10.01,0 -15.01,0 -2.03,0 -3.22,-1.13 -3.22,-3.03 0,-1.92 1.14,-3.06 3.2,-3.06 10.05,-0.02 20.1,-0.01 30.15,0 2,0 3.25,1.21 3.26,3.05 0,1.9 -1.26,3.05 -3.37,3.05 -5,0 -10,-0.01 -15.01,-0.01 z"
   id="path2"
   inkscape:connector-curvature="0" />
	<path
   d="m 163.96,273.79 c -5.1,0 -10.2,-0.01 -15.29,0.01 -1.25,0.01 -2.19,-0.45 -2.71,-1.6 -0.52,-1.14 -0.47,-2.27 0.25,-3.32 0.55,-0.81 1.33,-1.16 2.32,-1.16 10.28,0.01 20.56,0 30.85,0.01 1.68,0 2.87,1.3 2.87,3.01 0.01,1.71 -1.17,3.02 -2.86,3.03 -5.15,0.04 -10.29,0.02 -15.43,0.02 z"
   id="path4"
   inkscape:connector-curvature="0" />
	<path
   d="m 163.85,279.94 c 3.41,0 6.81,-0.01 10.22,0 1.58,0 2.01,0.43 2.05,1.96 0.11,4.14 0.11,4.14 -4.02,4.14 -6.04,0 -12.08,0 -18.11,0 -1.97,0 -2.32,-0.36 -2.32,-2.36 -0.01,-3.75 -0.01,-3.75 3.77,-3.75 2.8,0.01 5.61,0.01 8.41,0.01 z"
   id="path6"
   inkscape:connector-curvature="0" />
	<path
   d="m 220.8,166.17 c -4.01,-26.57 -27.3,-47.14 -54.2,-48.19 -16.28,-0.63 -30.59,4.51 -42.33,15.83 -14.61,14.09 -20.35,31.42 -17.2,51.48 2.16,13.74 8.88,25.06 19.32,34.23 6.87,6.04 10.36,13.63 10.29,22.83 -0.05,5.87 3.57,9.43 9.44,9.44 5.92,0.01 11.84,0 17.76,0 0,-0.02 0,-0.04 0,-0.06 5.96,0 11.93,-0.14 17.88,0.04 5.34,0.17 9.44,-3.78 9.31,-9.29 -0.21,-9.35 3.52,-16.91 10.46,-23.13 15.91,-14.24 22.46,-32.08 19.27,-53.18 z m -22.15,48.52 c -4.44,4.13 -8.27,8.54 -10.54,14.2 -1.73,4.3 -2.52,8.77 -2.48,13.4 0.03,3.06 -0.97,4.07 -3.98,4.08 -5.92,0.01 -11.84,0 -17.75,0 0,0.03 0,0.06 0,0.09 -5.88,0 -11.75,0 -17.63,0 -2.98,0 -4.2,-1.19 -4.19,-4.12 0.03,-10.89 -4.15,-19.85 -12.3,-27.02 -10.41,-9.15 -16.4,-20.63 -17.96,-34.39 -2.96,-26.08 15.4,-51.26 41.17,-56.49 28.05,-5.7 55.14,11.12 61.69,38.92 4.72,20.03 -0.96,37.32 -16.03,51.33 z"
   id="path8"
   inkscape:connector-curvature="0" />
</g>
</svg>