<svg xmlns="http://www.w3.org/2000/svg" xml:space="preserve" viewBox="0 0 230 230"><g fill="#ff8760"><path d="M112.374 18.985c0-5.232-.01-10.453 0-15.685.01-2.12 1.221-3.32 3.237-3.3 1.88.021 3.143 1.243 3.143 3.123.01 10.63.01 21.271 0 31.902 0 1.9-1.253 3.143-3.101 3.185-1.943.042-3.269-1.18-3.28-3.143-.02-5.357 0-10.714 0-16.082zM115.517 204.436H99.842c-2.12 0-3.362-1.18-3.362-3.164 0-2.005 1.19-3.195 3.341-3.195 10.495-.021 20.99-.01 31.485 0 2.089 0 3.394 1.263 3.404 3.185 0 1.984-1.315 3.185-3.519 3.185-5.221 0-10.442-.01-15.674-.01zM217.04 57.205c0 1.326-.46 2.151-1.357 2.736-9.012 5.806-18.014 11.623-27.036 17.408-1.546.992-3.352.512-4.323-1.055-.993-1.587-.658-3.31.94-4.344 8.928-5.764 17.867-11.518 26.795-17.282 1.044-.68 2.11-.784 3.185-.21 1.16.648 1.713 1.692 1.796 2.747zM156.828 49.331c-2.548-.03-4.094-2.537-2.861-4.74 5.21-9.315 10.442-18.62 15.695-27.914.898-1.587 2.736-2.015 4.323-1.096 1.546.898 2.12 2.631 1.253 4.177-5.242 9.356-10.505 18.692-15.758 28.038-.584 1.045-1.462 1.546-2.652 1.535zM16.395 54.114c.543-.031 1.086.261 1.629.606 8.897 5.733 17.794 11.466 26.691 17.21 1.66 1.075 2.005 2.819.95 4.437-1.002 1.536-2.777 1.964-4.354.95-8.98-5.774-17.95-11.549-26.921-17.344-1.326-.857-1.713-2.058-1.232-3.51.46-1.44 1.691-2.37 3.237-2.349zM57.957 15.142c1.211-.031 1.984.752 2.6 1.848 4.156 7.425 8.333 14.85 12.5 22.275.992 1.765 2.005 3.53 2.966 5.305.929 1.702.396 3.456-1.264 4.354-1.65.888-3.331.439-4.271-1.232a8161.131 8161.131 0 0 1-15.622-27.798c-1.274-2.277.323-4.783 3.09-4.752zM115.621 217.208c-5.326 0-10.651-.01-15.967.01-1.305.01-2.287-.47-2.83-1.67-.543-1.191-.49-2.371.261-3.468.575-.845 1.39-1.211 2.423-1.211 10.735.01 21.47 0 32.216.01 1.754 0 2.997 1.358 2.997 3.144.01 1.785-1.222 3.153-2.987 3.164-5.378.042-10.745.02-16.113.02zM115.506 223.63c3.561 0 7.112-.01 10.673 0 1.65 0 2.099.449 2.14 2.047.115 4.323.115 4.323-4.197 4.323H105.21c-2.057 0-2.423-.376-2.423-2.464-.01-3.916-.01-3.916 3.937-3.916 2.924.01 5.858.01 8.782.01zM174.977 104.824C170.79 77.078 146.47 55.597 118.378 54.5c-17-.658-31.944 4.71-44.204 16.53-15.256 14.714-21.25 32.811-17.961 53.76 2.255 14.347 9.273 26.168 20.175 35.744 7.174 6.308 10.819 14.234 10.746 23.841-.053 6.13 3.728 9.847 9.857 9.858 6.183.01 12.365 0 18.547 0v-.063c6.223 0 12.458-.146 18.671.042 5.577.178 9.858-3.947 9.722-9.701-.219-9.764 3.676-17.659 10.923-24.154 16.615-14.87 23.455-33.5 20.123-55.534zm-23.13 50.668c-4.637 4.312-8.636 8.918-11.007 14.828-1.806 4.49-2.631 9.158-2.59 13.993.032 3.196-1.012 4.25-4.156 4.261-6.182.01-12.364 0-18.535 0v.094h-18.41c-3.113 0-4.387-1.243-4.376-4.302.031-11.373-4.334-20.73-12.845-28.217-10.87-9.555-17.126-21.543-18.755-35.912-3.09-27.234 16.082-53.529 42.993-58.99 29.291-5.953 57.58 11.612 64.42 40.642 4.93 20.917-1.002 38.972-16.74 53.603z"/></g></svg>