<svg xmlns="http://www.w3.org/2000/svg" xml:space="preserve" viewBox="0 0 229.468 172.404"><path fill="#2f0f40" d="M229.462 89.32c-.01-6.28-3.94-10.22-10.18-10.23-11.15-.01-22.3 0-33.45 0-3.27 0-4.7-1.43-4.7-4.69 0-6.96.02-13.93-.01-20.89-.03-5.5-4.09-9.51-9.59-9.54-3.33-.02-6.66 0-9.99-.01-1.91-.01-2.31-.4-2.31-2.31-.01-3.83-.01-7.67 0-11.5 0-2.28.35-2.62 2.65-2.63 3.83-.01 7.67.02 11.5-.01 4.74-.04 7.73-3.05 7.75-7.78.01-2.37 0-4.74 0-7.11-.01-5.32-2.89-8.21-8.25-8.21-4.99-.01-9.99-.04-14.98.02-1.49.02-2.67-.38-3.85-1.34-5.14-4.19-12.34-4.1-17.4.16-1 .84-2.02 1.19-3.3 1.18-5.15-.04-10.29-.03-15.44-.01-5.19.01-8.14 2.97-8.17 8.18-.02 2.27-.02 4.54 0 6.81.04 5.2 2.98 8.1 8.22 8.12 3.83.01 7.67-.01 11.5.01 1.6.01 2.25.56 2.26 1.98.03 4.19.02 8.38.01 12.56 0 1.32-.72 1.91-2.01 1.9-1.06-.01-2.12 0-3.18 0h-6.66c-6.17.01-10.11 3.89-10.15 10.1-.04 6.81 0 13.62-.01 20.43 0 3.22-1.38 4.59-4.61 4.59h-23.46c-6.08.01-12.06.79-17.95 2.27-30.94 7.77-53.9 34.72-56.43 66.72-.07.94-.37 1.26-1.37 1.29-3.6.08-5.88 2.47-5.89 6.08-.02 3.53-.01 7.06 0 10.6.01 4.08 2.29 6.34 6.39 6.34h29.36c9.84 0 19.68.01 29.51 0 3.49 0 5.95-2.18 6.06-5.6.13-3.93.11-7.87 0-11.8-.08-2.99-2.09-5.23-5-5.56-1.38-.15-1.27-.61-.88-1.58 2.55-6.33 8.82-10.59 15.73-10.6 9.43-.01 18.87.04 28.3.01 1.58 0 2.77.52 3.87 1.65 17.7 18.29 46.36 18.3 64.12.03 1.14-1.18 2.37-1.69 4.01-1.69 12.56.04 25.13.03 37.69.02 6.39 0 10.27-3.87 10.28-10.27.02-12.56.02-25.13.01-37.69zm-5.56 37.67c0 3.38-1.42 4.79-4.77 4.79-12.56 0-25.13.04-37.69-.02-3.18-.01-5.73 1.05-7.93 3.35-15.21 15.88-40.63 15.98-55.92.19-2.38-2.46-5.05-3.58-8.46-3.55-9.28.08-18.57 0-27.85-.01-9.46-.01-17.86 5.79-21.14 14.62-1.59 4.28.34 7.7 4.83 8.45.65.11.86.35.86.95-.01 3.43-.02 6.86 0 10.29.01.96-.61.86-1.23.86h-28.91c-9.54 0-19.07-.02-28.61.03-1.24.01-1.65-.29-1.61-1.58.09-3.08.06-6.16.01-9.23-.02-.99.29-1.28 1.28-1.31 3.54-.1 5.69-2.28 5.97-5.92.91-11.85 4.54-22.81 11.14-32.69 11.7-17.52 28.06-27.85 48.91-30.98 4.35-.65 8.74-.68 13.14-.66 6.46.04 12.92.01 19.38.01 6.05-.01 9.95-3.82 10-9.89.05-5.45.01-10.9.01-16.35 0-1.41-.01-2.83 0-4.24.02-3.18 1.46-4.64 4.6-4.64 3.28-.01 6.56.01 9.84 0 4.55-.02 7.45-2.92 7.46-7.49.02-4.09.01-8.17 0-12.26-.02-4.68-2.93-7.66-7.63-7.73-3.83-.06-7.67-.01-11.5-.01-2.43 0-2.77-.35-2.77-2.83 0-2.27-.01-4.54 0-6.81.02-1.83.51-2.34 2.35-2.35 5.15-.02 10.29-.06 15.44.01 2.7.04 5-.7 7.08-2.47 3.21-2.73 7.43-2.68 10.65.09 1.95 1.67 4.12 2.4 6.65 2.38 5.15-.04 10.29-.02 15.44-.01 2.2 0 2.69.5 2.7 2.65.01 2.27.01 4.54 0 6.81-.01 2-.51 2.53-2.49 2.54-3.78.01-7.57-.01-11.35.01-5.25.02-8.12 2.9-8.13 8.17-.01 3.89-.02 7.77 0 11.66.02 4.78 2.88 7.65 7.62 7.66 3.28.01 6.56-.01 9.84 0 2.93.01 4.51 1.56 4.51 4.46.01 6.96 0 13.93.01 20.89.01 5.83 3.94 9.76 9.79 9.76 11.2.01 22.4 0 33.61 0 3.44 0 4.87 1.42 4.87 4.86.01 12.51.01 25.03 0 37.54z"/></svg>