<svg xmlns="http://www.w3.org/2000/svg" xml:space="preserve" viewBox="0 0 230 230"><g fill="#2f0f40"><path d="M114.949 204.436H99.274c-2.12 0-3.362-1.18-3.362-3.164 0-2.005 1.19-3.195 3.342-3.195 10.494-.021 20.99-.01 31.484 0 2.089 0 3.394 1.263 3.404 3.185 0 1.984-1.315 3.185-3.519 3.185-5.221 0-10.442-.01-15.674-.01zM115.053 217.208c-5.326 0-10.651-.01-15.967.01-1.305.01-2.287-.47-2.83-1.67-.543-1.191-.49-2.371.262-3.468.574-.845 1.388-1.21 2.422-1.21 10.735.01 21.47 0 32.216.01 1.754 0 2.997 1.357 2.997 3.143.01 1.785-1.222 3.153-2.987 3.164-5.378.042-10.745.02-16.113.02zM114.938 223.63c3.561 0 7.112-.01 10.673 0 1.65 0 2.099.449 2.14 2.047.115 4.323.115 4.323-4.197 4.323h-18.912c-2.057 0-2.423-.376-2.423-2.464-.01-3.916-.01-3.916 3.937-3.916 2.924.01 5.858.01 8.782.01zM174.41 104.824c-4.188-27.746-28.51-49.227-56.6-50.323-17-.658-31.944 4.71-44.204 16.53-15.256 14.714-21.25 32.811-17.961 53.76 2.256 14.347 9.273 26.169 20.175 35.744 7.174 6.308 10.819 14.234 10.746 23.841-.053 6.13 3.728 9.847 9.858 9.858 6.182.01 12.364 0 18.546 0v-.063c6.224 0 12.458-.146 18.671.042 5.577.178 9.858-3.947 9.722-9.701-.219-9.764 3.676-17.659 10.923-24.154 16.615-14.87 23.454-33.5 20.123-55.534zm-23.131 50.668c-4.637 4.313-8.636 8.918-11.007 14.828-1.806 4.49-2.631 9.158-2.59 13.993.032 3.196-1.012 4.25-4.156 4.261-6.182.01-12.364 0-18.535 0v.094H96.58c-3.113 0-4.387-1.243-4.376-4.302.031-11.372-4.334-20.729-12.845-28.216-10.87-9.555-17.126-21.544-18.755-35.913-3.09-27.234 16.082-53.529 42.993-58.99 29.291-5.953 57.58 11.612 64.42 40.643 4.93 20.916-1.002 38.972-16.74 53.602z"/></g></svg>